<svg xmlns="http://www.w3.org/2000/svg" width="17" height="12" viewBox="0 0 17 12"><g><g><path d="M.793.067c.133-.05.276-.083.428-.083h14.558c.151 0 .294.032.428.083L9.684 6.442c-.664.65-1.704.65-2.369 0zm10.022 6.676L16.92.778c.06.15.094.314.094.486v9.47c0 .243-.07.468-.182.661zm5.447 5.17a1.193 1.193 0 0 1-.483.102H1.221c-.172 0-.335-.037-.483-.102l5.998-4.639c.507.45 1.134.679 1.764.679.63 0 1.257-.229 1.763-.679zM6.184 6.743L.17 11.395a1.307 1.307 0 0 1-.182-.66V1.264c0-.172.034-.336.093-.486z"/><path fill="#363636" d="M.793.067c.133-.05.276-.083.428-.083h14.558c.151 0 .294.032.428.083L9.684 6.442c-.664.65-1.704.65-2.369 0zm10.022 6.676L16.92.778c.06.15.094.314.094.486v9.47c0 .243-.07.468-.182.661zm5.447 5.17a1.193 1.193 0 0 1-.483.102H1.221c-.172 0-.335-.037-.483-.102l5.998-4.639c.507.45 1.134.679 1.764.679.63 0 1.257-.229 1.763-.679zM6.184 6.743L.17 11.395a1.307 1.307 0 0 1-.182-.66V1.264c0-.172.034-.336.093-.486z"/></g></g></svg>