<svg xmlns="http://www.w3.org/2000/svg" width="19" height="19" viewBox="0 0 19 19"><g><g><path d="M19.006 9.515c0 5.259-4.256 9.522-9.506 9.522S-.006 14.774-.006 9.515 4.249-.007 9.5-.007c5.25 0 9.506 4.263 9.506 9.522zM14.3 6.823c-.335.149-.696.25-1.075.295.386-.231.683-.6.823-1.037a3.74 3.74 0 0 1-1.19.455 1.873 1.873 0 0 0-3.19 1.71 5.313 5.313 0 0 1-3.858-1.96 1.877 1.877 0 0 0 .58 2.504 1.869 1.869 0 0 1-.849-.234v.024c0 .909.645 1.666 1.502 1.838a1.858 1.858 0 0 1-.846.033c.239.745.93 1.287 1.75 1.302a3.753 3.753 0 0 1-2.772.777 5.29 5.29 0 0 0 2.87.843c3.443 0 5.326-2.859 5.326-5.337a5.19 5.19 0 0 0-.005-.243 3.8 3.8 0 0 0 .934-.97z"/><path fill="#464646" d="M19.006 9.515c0 5.259-4.256 9.522-9.506 9.522S-.006 14.774-.006 9.515 4.249-.007 9.5-.007c5.25 0 9.506 4.263 9.506 9.522zM14.3 6.823c-.335.149-.696.25-1.075.295.386-.231.683-.6.823-1.037a3.74 3.74 0 0 1-1.19.455 1.873 1.873 0 0 0-3.19 1.71 5.313 5.313 0 0 1-3.858-1.96 1.877 1.877 0 0 0 .58 2.504 1.869 1.869 0 0 1-.849-.234v.024c0 .909.645 1.666 1.502 1.838a1.858 1.858 0 0 1-.846.033c.239.745.93 1.287 1.75 1.302a3.753 3.753 0 0 1-2.772.777 5.29 5.29 0 0 0 2.87.843c3.443 0 5.326-2.859 5.326-5.337a5.19 5.19 0 0 0-.005-.243 3.8 3.8 0 0 0 .934-.97z"/></g></g></svg>