<svg xmlns="http://www.w3.org/2000/svg" width="15" height="15" viewBox="0 0 15 15"><g><g><path d="M14.278 13.235c0 .282-.103.527-.31.733-.205.206-.45.31-.732.31a.968.968 0 0 1-.734-.31l-2.794-2.786a5.58 5.58 0 0 1-3.25 1.01 5.63 5.63 0 0 1-2.23-.452 5.73 5.73 0 0 1-1.832-1.222 5.73 5.73 0 0 1-1.222-1.833A5.635 5.635 0 0 1 .72 6.457c0-.777.151-1.52.453-2.229a5.735 5.735 0 0 1 1.222-1.833 5.742 5.742 0 0 1 1.833-1.222A5.642 5.642 0 0 1 6.457.72c.777 0 1.52.15 2.229.452.708.302 1.32.709 1.833 1.222.513.513.92 1.124 1.222 1.833.301.71.452 1.452.452 2.229a5.579 5.579 0 0 1-1.01 3.25l2.794 2.795a.998.998 0 0 1 .301.733zm-4.17-6.778c0-1.005-.358-1.865-1.072-2.579-.715-.714-1.574-1.071-2.579-1.071-1.005 0-1.864.357-2.578 1.071-.715.714-1.072 1.574-1.072 2.579 0 1.005.357 1.864 1.072 2.578.714.714 1.573 1.071 2.578 1.071s1.864-.357 2.579-1.07c.714-.715 1.071-1.574 1.071-2.58z"/><path fill="#fff" d="M14.278 13.235c0 .282-.103.527-.31.733-.205.206-.45.31-.732.31a.968.968 0 0 1-.734-.31l-2.794-2.786a5.58 5.58 0 0 1-3.25 1.01 5.63 5.63 0 0 1-2.23-.452 5.73 5.73 0 0 1-1.832-1.222 5.73 5.73 0 0 1-1.222-1.833A5.635 5.635 0 0 1 .72 6.457c0-.777.151-1.52.453-2.229a5.735 5.735 0 0 1 1.222-1.833 5.742 5.742 0 0 1 1.833-1.222A5.642 5.642 0 0 1 6.457.72c.777 0 1.52.15 2.229.452.708.302 1.32.709 1.833 1.222.513.513.92 1.124 1.222 1.833.301.71.452 1.452.452 2.229a5.579 5.579 0 0 1-1.01 3.25l2.794 2.795a.998.998 0 0 1 .301.733zm-4.17-6.778c0-1.005-.358-1.865-1.072-2.579-.715-.714-1.574-1.071-2.579-1.071-1.005 0-1.864.357-2.578 1.071-.715.714-1.072 1.574-1.072 2.579 0 1.005.357 1.864 1.072 2.578.714.714 1.573 1.071 2.578 1.071s1.864-.357 2.579-1.07c.714-.715 1.071-1.574 1.071-2.58z"/></g></g></svg>