<svg xmlns="http://www.w3.org/2000/svg" width="17" height="16"><path d="M16.48.031a.38.38 0 01.406.086.388.388 0 01.091.408l-5.09 14.014a1.192 1.192 0 01-1.827.56l-4.758-3.483L16.233.783 3.871 10.567.39 8.019a1.081 1.081 0 01.247-1.88zM7.157 14.38c.034.047-1.195.857-2.136 1.468a.831.831 0 01-1.272-.555l-.676-3.716-.03-.163z"/><path fill="#555" d="M16.48.031a.38.38 0 01.406.086.388.388 0 01.091.408l-5.09 14.014a1.192 1.192 0 01-1.827.56l-4.758-3.483L16.233.783 3.871 10.567.39 8.019a1.081 1.081 0 01.247-1.88zM7.157 14.38c.034.047-1.195.857-2.136 1.468a.831.831 0 01-1.272-.555l-.676-3.716-.03-.163z"/></svg>