<svg xmlns="http://www.w3.org/2000/svg" width="15" height="15"><path d="M14.278 13.235a1 1 0 01-.31.733 1 1 0 01-.732.31.968.968 0 01-.734-.31l-2.794-2.786a5.58 5.58 0 01-3.25 1.01 5.63 5.63 0 01-2.23-.452 5.73 5.73 0 01-1.832-1.222 5.73 5.73 0 01-1.222-1.833A5.635 5.635 0 01.72 6.457c0-.777.151-1.52.453-2.229a5.735 5.735 0 011.222-1.833 5.742 5.742 0 011.833-1.222A5.642 5.642 0 016.457.72c.777 0 1.52.15 2.229.452.708.302 1.32.709 1.833 1.222.513.513.92 1.124 1.222 1.833a5.65 5.65 0 01.452 2.229 5.579 5.579 0 01-1.01 3.25l2.794 2.795a.998.998 0 01.301.733zm-4.17-6.778c0-1.005-.358-1.865-1.072-2.579-.715-.714-1.574-1.071-2.579-1.071-1.005 0-1.864.357-2.578 1.071a3.513 3.513 0 00-1.072 2.579c0 1.005.357 1.864 1.072 2.578.714.714 1.573 1.071 2.578 1.071s1.864-.357 2.579-1.07c.714-.715 1.071-1.574 1.071-2.58z"/><path fill="#fff" d="M14.278 13.235a1 1 0 01-.31.733 1 1 0 01-.732.31.968.968 0 01-.734-.31l-2.794-2.786a5.58 5.58 0 01-3.25 1.01 5.63 5.63 0 01-2.23-.452 5.73 5.73 0 01-1.832-1.222 5.73 5.73 0 01-1.222-1.833A5.635 5.635 0 01.72 6.457c0-.777.151-1.52.453-2.229a5.735 5.735 0 011.222-1.833 5.742 5.742 0 011.833-1.222A5.642 5.642 0 016.457.72c.777 0 1.52.15 2.229.452.708.302 1.32.709 1.833 1.222.513.513.92 1.124 1.222 1.833a5.65 5.65 0 01.452 2.229 5.579 5.579 0 01-1.01 3.25l2.794 2.795a.998.998 0 01.301.733zm-4.17-6.778c0-1.005-.358-1.865-1.072-2.579-.715-.714-1.574-1.071-2.579-1.071-1.005 0-1.864.357-2.578 1.071a3.513 3.513 0 00-1.072 2.579c0 1.005.357 1.864 1.072 2.578.714.714 1.573 1.071 2.578 1.071s1.864-.357 2.579-1.07c.714-.715 1.071-1.574 1.071-2.58z"/></svg>