<svg xmlns="http://www.w3.org/2000/svg" width="14" height="14"><path d="M12.967 6.203l-2.57 2.57a3.633 3.633 0 01-5.14 0 3.614 3.614 0 01-.551-.734L5.9 6.845c.056-.057.127-.09.194-.129.082.283.226.55.448.771a1.819 1.819 0 002.57 0l2.569-2.569a1.819 1.819 0 000-2.57 1.819 1.819 0 00-2.57 0l-.913.915A4.56 4.56 0 005.88 3.01l1.947-1.947a3.635 3.635 0 015.14 5.14zM8.49 10.68l-1.948 1.947a3.635 3.635 0 01-5.14-5.14l2.57-2.569a3.634 3.634 0 015.14 0c.223.223.399.474.551.733L8.47 6.845c-.057.057-.126.089-.193.128a1.795 1.795 0 00-.45-.77 1.818 1.818 0 00-2.569 0l-2.57 2.57a1.82 1.82 0 000 2.57 1.82 1.82 0 002.57 0l.915-.915c.74.288 1.54.366 2.318.252z"/><path fill="#fff" d="M12.967 6.203l-2.57 2.57a3.633 3.633 0 01-5.14 0 3.614 3.614 0 01-.551-.734L5.9 6.845c.056-.057.127-.09.194-.129.082.283.226.55.448.771a1.819 1.819 0 002.57 0l2.569-2.569a1.819 1.819 0 000-2.57 1.819 1.819 0 00-2.57 0l-.913.915A4.56 4.56 0 005.88 3.01l1.947-1.947a3.635 3.635 0 015.14 5.14zM8.49 10.68l-1.948 1.947a3.635 3.635 0 01-5.14-5.14l2.57-2.569a3.634 3.634 0 015.14 0c.223.223.399.474.551.733L8.47 6.845c-.057.057-.126.089-.193.128a1.795 1.795 0 00-.45-.77 1.818 1.818 0 00-2.569 0l-2.57 2.57a1.82 1.82 0 000 2.57 1.82 1.82 0 002.57 0l.915-.915c.74.288 1.54.366 2.318.252z"/></svg>