<svg xmlns="http://www.w3.org/2000/svg" width="29" height="40"><path d="M24.214.398s-3.253 3.13-6.77 4.391C-8.602 14.133 2.383 32.341 2.741 32.401c0 0 1.46-2.522 3.434-3.96 12.52-9.13 15.064-19.636 15.064-19.636s-2.81 12.643-13.948 20.51c-2.46 1.737-4.125 6.013-4.83 10.286 0 0 1.743-.697 2.493-.887.293-1.893.904-3.705 1.938-5.323 15.567 1.838 20.665-10.603 21.331-14.942C29.795 8.204 24.213.398 24.213.398z"/><path fill="#363636" d="M24.214.398s-3.253 3.13-6.77 4.391C-8.602 14.133 2.383 32.341 2.741 32.401c0 0 1.46-2.522 3.434-3.96 12.52-9.13 15.064-19.636 15.064-19.636s-2.81 12.643-13.948 20.51c-2.46 1.737-4.125 6.013-4.83 10.286 0 0 1.743-.697 2.493-.887.293-1.893.904-3.705 1.938-5.323 15.567 1.838 20.665-10.603 21.331-14.942C29.795 8.204 24.213.398 24.213.398z"/></svg>