<svg xmlns="http://www.w3.org/2000/svg" width="39" height="34"><path d="M23.625.062c2.276 0 4.126 1.825 4.126 4.067a1.45 1.45 0 01-1.46 1.436c-.807 0-1.463-.644-1.463-1.436 0-.656-.54-1.19-1.203-1.19h-8.297a1.2 1.2 0 00-1.207 1.19c0 .792-.653 1.436-1.457 1.436-.805 0-1.461-.644-1.461-1.436 0-2.242 1.851-4.067 4.125-4.067zM-.05 30.08V10.914c0-2.155 1.772-3.903 3.96-3.903h31.135c2.185 0 3.959 1.748 3.959 3.903V30.08c0 2.158-1.774 3.905-3.96 3.905H3.91c-2.187 0-3.96-1.747-3.96-3.905zm33.874-3.47a.959.959 0 00-.963-.953H6.202a.96.96 0 00-.965.952c0 .526.431.95.965.95h26.659a.955.955 0 00.963-.95zm-.027-6.11a.96.96 0 00-.963-.952H6.175a.96.96 0 00-.965.953c0 .525.431.948.965.948h26.659c.53 0 .964-.423.963-.948zM5.183 14.39c0 .527.432.95.965.95h26.659c.53 0 .963-.423.963-.95a.96.96 0 00-.963-.952H6.148a.96.96 0 00-.965.953z"/><path fill="#e5493a" d="M23.625.062c2.276 0 4.126 1.825 4.126 4.067a1.45 1.45 0 01-1.46 1.436c-.807 0-1.463-.644-1.463-1.436 0-.656-.54-1.19-1.203-1.19h-8.297a1.2 1.2 0 00-1.207 1.19c0 .792-.653 1.436-1.457 1.436-.805 0-1.461-.644-1.461-1.436 0-2.242 1.851-4.067 4.125-4.067zM-.05 30.08V10.914c0-2.155 1.772-3.903 3.96-3.903h31.135c2.185 0 3.959 1.748 3.959 3.903V30.08c0 2.158-1.774 3.905-3.96 3.905H3.91c-2.187 0-3.96-1.747-3.96-3.905zm33.874-3.47a.959.959 0 00-.963-.953H6.202a.96.96 0 00-.965.952c0 .526.431.95.965.95h26.659a.955.955 0 00.963-.95zm-.027-6.11a.96.96 0 00-.963-.952H6.175a.96.96 0 00-.965.953c0 .525.431.948.965.948h26.659c.53 0 .964-.423.963-.948zM5.183 14.39c0 .527.432.95.965.95h26.659c.53 0 .963-.423.963-.95a.96.96 0 00-.963-.952H6.148a.96.96 0 00-.965.953z"/></svg>