<svg xmlns="http://www.w3.org/2000/svg" width="16" height="16"><path d="M16 3v10a3 3 0 01-3 3H3a3 3 0 01-3-3V3A3 3 0 013-.002h10a3 3 0 013 3zm-5.757 3.344H8.755l.002-.828c0-.431.03-.662.65-.662h.827V3.2H8.91c-1.59 0-1.955.82-1.955 2.17l.002.974-1.2.001V8h1.2v4.8h1.799V8h1.312z"/><path fill="#464646" d="M16 3v10a3 3 0 01-3 3H3a3 3 0 01-3-3V3A3 3 0 013-.002h10a3 3 0 013 3zm-5.757 3.344H8.755l.002-.828c0-.431.03-.662.65-.662h.827V3.2H8.91c-1.59 0-1.955.82-1.955 2.17l.002.974-1.2.001V8h1.2v4.8h1.799V8h1.312z"/></svg>