<svg xmlns="http://www.w3.org/2000/svg" width="10" height="16"><path d="M1.7 15.905c-.693-.094-1.66-.515-1.66-2.138V1.993s.034-2.06 2.213-2.06h5.346s2.396-.072 2.396 2.08v11.213c0 .343-.01.905-.12 1.234-.203.607-.752 1.447-2.233 1.447H3.077c-.38 0-1 .049-1.377-.002zm3.28-.932c.326 0 .588-.239.588-.53 0-.294-.262-.53-.588-.53-.322 0-.586.236-.586.53 0 .291.264.53.586.53zM5.985.933H4.048c-.38 0-.69.222-.69.498 0 .275.31.498.69.498h1.937c.38 0 .69-.223.69-.498s-.31-.499-.69-.499zm2.213 1.994H1.835c-.38 0-.69.279-.69.622v8.743c0 .343.31.622.69.622h6.363c.381 0 .69-.279.69-.622V3.549c0-.343-.309-.622-.69-.622z"/><path fill="#555" d="M1.7 15.905c-.693-.094-1.66-.515-1.66-2.138V1.993s.034-2.06 2.213-2.06h5.346s2.396-.072 2.396 2.08v11.213c0 .343-.01.905-.12 1.234-.203.607-.752 1.447-2.233 1.447H3.077c-.38 0-1 .049-1.377-.002zm3.28-.932c.326 0 .588-.239.588-.53 0-.294-.262-.53-.588-.53-.322 0-.586.236-.586.53 0 .291.264.53.586.53zM5.985.933H4.048c-.38 0-.69.222-.69.498 0 .275.31.498.69.498h1.937c.38 0 .69-.223.69-.498s-.31-.499-.69-.499zm2.213 1.994H1.835c-.38 0-.69.279-.69.622v8.743c0 .343.31.622.69.622h6.363c.381 0 .69-.279.69-.622V3.549c0-.343-.309-.622-.69-.622z"/></svg>