<svg xmlns="http://www.w3.org/2000/svg" width="23" height="32"><path d="M19.233.318s-2.601 2.504-5.415 3.513C-7.02 11.306 1.768 25.873 2.055 25.921c0 0 1.169-2.018 2.747-3.17C14.818 15.45 16.854 7.044 16.854 7.044S14.606 17.158 5.696 23.452c-1.968 1.39-3.3 4.81-3.865 8.229 0 0 1.395-.558 1.995-.71.234-1.514.723-2.964 1.55-4.259 12.453 1.47 16.532-8.482 17.065-11.953C23.698 6.563 19.233.318 19.233.318z"/><path fill="#fff" d="M19.233.318s-2.601 2.504-5.415 3.513C-7.02 11.306 1.768 25.873 2.055 25.921c0 0 1.169-2.018 2.747-3.17C14.818 15.45 16.854 7.044 16.854 7.044S14.606 17.158 5.696 23.452c-1.968 1.39-3.3 4.81-3.865 8.229 0 0 1.395-.558 1.995-.71.234-1.514.723-2.964 1.55-4.259 12.453 1.47 16.532-8.482 17.065-11.953C23.698 6.563 19.233.318 19.233.318z"/></svg>